<?xml version="1.0" standalone="no"?>
<!DOCTYPE svg PUBLIC "-//W3C//DTD SVG 20010904//EN"
 "http://www.w3.org/TR/2001/REC-SVG-20010904/DTD/svg10.dtd">
<svg version="1.0" xmlns="http://www.w3.org/2000/svg"
 width="97.000000pt" height="95.000000pt" viewBox="0 0 97.000000 95.000000"
 preserveAspectRatio="xMidYMid meet">

<g transform="translate(0.000000,95.000000) scale(0.100000,-0.100000)"
fill="#2D92A8" stroke="none">
<path d="M550 805 c-21 -8 -79 -14 -147 -14 -87 -1 -125 -6 -166 -21 -51 -19
-57 -25 -87 -86 -46 -93 -52 -190 -18 -266 16 -34 42 -68 69 -90 53 -43 106
-71 123 -65 7 3 27 40 45 83 38 91 47 104 70 104 11 0 26 20 42 53 22 46 23
55 11 67 -28 25 6 190 39 190 13 0 10 -31 -6 -60 -8 -14 -14 -46 -15 -72 0
-37 4 -48 19 -53 31 -9 51 5 83 61 31 56 45 71 56 60 9 -10 -38 -94 -71 -127
-16 -16 -37 -29 -47 -29 -28 0 -73 -96 -57 -121 8 -14 5 -32 -19 -85 -16 -37
-30 -72 -32 -76 -4 -10 49 -10 63 0 6 4 21 30 34 57 13 28 30 54 38 58 8 5 11
17 7 32 -5 22 -1 36 47 140 39 86 139 160 139 104 0 -19 -44 -124 -111 -263
-19 -39 -25 -76 -13 -76 15 0 107 75 147 120 48 54 62 96 51 158 -13 69 -90
194 -135 217 -34 18 -112 18 -159 0z m30 -80 c0 -23 -26 -81 -40 -90 -23 -14
-23 6 0 55 23 50 40 64 40 35z m50 -9 c0 -2 -9 -24 -19 -49 -20 -46 -36 -64
-45 -49 -8 13 36 102 51 102 7 0 13 -2 13 -4z"/>
<path d="M706 603 c-14 -15 -42 -61 -62 -101 -33 -66 -35 -75 -21 -89 13 -14
16 -13 22 8 5 13 27 64 51 113 24 50 42 92 40 94 -2 2 -16 -9 -30 -25z"/>
</g>
</svg>
